<?xml version="1.0" encoding="UTF-8" standalone="no"?><!DOCTYPE svg PUBLIC "-//W3C//DTD SVG 1.1//EN" "http://www.w3.org/Graphics/SVG/1.1/DTD/svg11.dtd"><!-- Generated by graphviz version 2.40.1 (20161225.0304)
 --><!-- Title: QuestionMuniPairProcess Pages: 1 --><svg xmlns="http://www.w3.org/2000/svg" xmlns:xlink="http://www.w3.org/1999/xlink" width="534pt" height="746pt" viewBox="0.00 0.00 534.35 746.20">
<g id="graph0" class="graph" transform="scale(1 1) rotate(0) translate(4 742.2)">
<title>QuestionMuniPairProcess</title>
<polygon fill="#ffffff" stroke="transparent" points="-4,4 -4,-742.2 530.3485,-742.2 530.3485,4 -4,4"/>
<!-- Start -->
<g id="node1" class="node">
<title>Start</title>
<ellipse fill="#ffffff" stroke="#000000" cx="27" cy="-706.2" rx="27" ry="18"/>
<text text-anchor="middle" x="27" y="-703.2" font-family="Helvetica,sans-Serif" font-size="10.00" fill="#000000">Start</text>
</g>
<!-- subtask_state -->
<g id="node3" class="node">
<title>subtask_state</title>
<polygon fill="#add8e6" stroke="#000000" points="168.2673,-728.2 89.7327,-728.2 89.7327,-684.2 168.2673,-684.2 168.2673,-728.2"/>
<text text-anchor="middle" x="129" y="-715.2" font-family="Helvetica,sans-Serif" font-size="10.00" fill="#000000">State:</text>
<text text-anchor="middle" x="129" y="-703.2" font-family="Helvetica,sans-Serif" font-size="10.00" fill="#000000">'subtasks'</text>
<text text-anchor="middle" x="129" y="-691.2" font-family="Helvetica,sans-Serif" font-size="10.00" fill="#000000">Action: 'query'</text>
</g>
<!-- Start&#45;&gt;subtask_state -->
<g id="edge1" class="edge">
<title>Start-&gt;subtask_state</title>
<path fill="none" stroke="#000000" d="M54.0938,-706.2C62.484,-706.2 70.8742,-706.2 79.2644,-706.2"/>
<polygon fill="#000000" stroke="#000000" points="79.4987,-709.7001 89.4987,-706.2 79.4986,-702.7001 79.4987,-709.7001"/>
</g>
<!-- End -->
<g id="node2" class="node">
<title>End</title>
<ellipse fill="#ffffff" stroke="#000000" cx="131" cy="-18" rx="27" ry="18"/>
<text text-anchor="middle" x="131" y="-15" font-family="Helvetica,sans-Serif" font-size="10.00" fill="#000000">End</text>
</g>
<!-- decision_subtasks -->
<g id="node7" class="node">
<title>decision_subtasks</title>
<polygon fill="#add8e6" stroke="#000000" points="279,-738.2 203.578,-706.2 279,-674.2 354.422,-706.2 279,-738.2"/>
<text text-anchor="middle" x="279" y="-709.2" font-family="Helvetica,sans-Serif" font-size="10.00" fill="#000000">Are Subtasks</text>
<text text-anchor="middle" x="279" y="-697.2" font-family="Helvetica,sans-Serif" font-size="10.00" fill="#000000">Required?</text>
</g>
<!-- subtask_state&#45;&gt;decision_subtasks -->
<g id="edge2" class="edge">
<title>subtask_state-&gt;decision_subtasks</title>
<path fill="none" stroke="#000000" d="M168.5508,-706.2C176.8325,-706.2 185.1141,-706.2 193.3958,-706.2"/>
<polygon fill="#000000" stroke="#000000" points="193.4976,-709.7001 203.4976,-706.2 193.4976,-702.7001 193.4976,-709.7001"/>
</g>
<!-- main_state -->
<g id="node4" class="node">
<title>main_state</title>
<polygon fill="#add8e6" stroke="#000000" points="296.2673,-548.4 217.7327,-548.4 217.7327,-504.4 296.2673,-504.4 296.2673,-548.4"/>
<text text-anchor="middle" x="257" y="-535.4" font-family="Helvetica,sans-Serif" font-size="10.00" fill="#000000">State:</text>
<text text-anchor="middle" x="257" y="-523.4" font-family="Helvetica,sans-Serif" font-size="10.00" fill="#000000">'main'</text>
<text text-anchor="middle" x="257" y="-511.4" font-family="Helvetica,sans-Serif" font-size="10.00" fill="#000000">Action: 'query'</text>
</g>
<!-- main_api_call -->
<g id="node13" class="node">
<title>main_api_call</title>
<polygon fill="#f08080" stroke="#000000" points="492.523,-544.4 331.477,-544.4 331.477,-508.4 492.523,-508.4 492.523,-544.4"/>
<text text-anchor="middle" x="412" y="-523.4" font-family="Helvetica,sans-Serif" font-size="10.00" fill="#000000">API Call: Process Main Question</text>
</g>
<!-- main_state&#45;&gt;main_api_call -->
<g id="edge6" class="edge">
<title>main_state-&gt;main_api_call</title>
<path fill="none" stroke="#000000" d="M296.3555,-526.4C304.5985,-526.4 312.8415,-526.4 321.0845,-526.4"/>
<polygon fill="#000000" stroke="#000000" points="321.1392,-529.9001 331.1392,-526.4 321.1391,-522.9001 321.1392,-529.9001"/>
</g>
<!-- double_check_state -->
<g id="node5" class="node">
<title>double_check_state</title>
<polygon fill="#add8e6" stroke="#000000" points="349.947,-117 254.053,-117 254.053,-73 349.947,-73 349.947,-117"/>
<text text-anchor="middle" x="302" y="-104" font-family="Helvetica,sans-Serif" font-size="10.00" fill="#000000">State:</text>
<text text-anchor="middle" x="302" y="-92" font-family="Helvetica,sans-Serif" font-size="10.00" fill="#000000">'double_checking'</text>
<text text-anchor="middle" x="302" y="-80" font-family="Helvetica,sans-Serif" font-size="10.00" fill="#000000">Action: 'query'</text>
</g>
<!-- double_check_api_call -->
<g id="node15" class="node">
<title>double_check_api_call</title>
<polygon fill="#f08080" stroke="#000000" points="526.1972,-36 323.8028,-36 323.8028,0 526.1972,0 526.1972,-36"/>
<text text-anchor="middle" x="425" y="-15" font-family="Helvetica,sans-Serif" font-size="10.00" fill="#000000">API Call: Process Double-Check Question</text>
</g>
<!-- double_check_state&#45;&gt;double_check_api_call -->
<g id="edge16" class="edge">
<title>double_check_state-&gt;double_check_api_call</title>
<path fill="none" stroke="#000000" d="M337.2469,-72.9349C352.9398,-63.1108 371.4404,-51.5292 387.3986,-41.5391"/>
<polygon fill="#000000" stroke="#000000" points="389.3498,-44.4469 395.9688,-36.174 385.6355,-38.5136 389.3498,-44.4469"/>
</g>
<!-- completed_state -->
<g id="node6" class="node">
<title>completed_state</title>
<polygon fill="#add8e6" stroke="#000000" points="164.0416,-113 97.9584,-113 97.9584,-77 164.0416,-77 164.0416,-113"/>
<text text-anchor="middle" x="131" y="-98" font-family="Helvetica,sans-Serif" font-size="10.00" fill="#000000">State:</text>
<text text-anchor="middle" x="131" y="-86" font-family="Helvetica,sans-Serif" font-size="10.00" fill="#000000">'completed'</text>
</g>
<!-- completed_state&#45;&gt;End -->
<g id="edge18" class="edge">
<title>completed_state-&gt;End</title>
<path fill="none" stroke="#000000" d="M131,-76.7521C131,-67.6422 131,-56.4174 131,-46.2282"/>
<polygon fill="#000000" stroke="#000000" points="134.5001,-46.1169 131,-36.1169 127.5001,-46.117 134.5001,-46.1169"/>
</g>
<!-- decision_subtasks&#45;&gt;main_state -->
<g id="edge4" class="edge">
<title>decision_subtasks-&gt;main_state</title>
<path fill="none" stroke="#000000" d="M268.5608,-678.3874C262.9888,-662.0498 256.7122,-640.8498 253.8934,-621.4 251.5986,-605.5654 253.4726,-601.3945 253.8934,-585.4 254.1216,-576.7252 254.5383,-567.3404 254.9939,-558.6623"/>
<polygon fill="#000000" stroke="#000000" points="258.497,-558.7019 255.559,-548.5226 251.5079,-558.3124 258.497,-558.7019"/>
<text text-anchor="middle" x="262.5533" y="-599.2" font-family="Times,serif" font-size="14.00" fill="#000000">No</text>
</g>
<!-- subtask_api_call -->
<g id="node12" class="node">
<title>subtask_api_call</title>
<polygon fill="#f08080" stroke="#000000" points="417.6903,-621.4 280.3097,-621.4 280.3097,-585.4 417.6903,-585.4 417.6903,-621.4"/>
<text text-anchor="middle" x="349" y="-600.4" font-family="Helvetica,sans-Serif" font-size="10.00" fill="#000000">API Call: Process Subtasks</text>
</g>
<!-- decision_subtasks&#45;&gt;subtask_api_call -->
<g id="edge3" class="edge">
<title>decision_subtasks-&gt;subtask_api_call</title>
<path fill="none" stroke="#000000" d="M295.945,-681.315C306.5285,-665.7725 320.1449,-645.7758 330.9334,-629.9322"/>
<polygon fill="#000000" stroke="#000000" points="333.8634,-631.8477 336.5988,-621.6121 328.0774,-627.9078 333.8634,-631.8477"/>
<text text-anchor="middle" x="335.8829" y="-643.6" font-family="Times,serif" font-size="14.00" fill="#000000">Yes</text>
</g>
<!-- decision_parsing -->
<g id="node8" class="node">
<title>decision_parsing</title>
<polygon fill="#add8e6" stroke="#000000" points="412,-467.4 339.1576,-435.4 412,-403.4 484.8424,-435.4 412,-467.4"/>
<text text-anchor="middle" x="412" y="-438.4" font-family="Helvetica,sans-Serif" font-size="10.00" fill="#000000">Was Parsing</text>
<text text-anchor="middle" x="412" y="-426.4" font-family="Helvetica,sans-Serif" font-size="10.00" fill="#000000">Successful?</text>
</g>
<!-- decision_double_check -->
<g id="node9" class="node">
<title>decision_double_check</title>
<polygon fill="#add8e6" stroke="#000000" points="159,-350.6 57.948,-318.6 159,-286.6 260.052,-318.6 159,-350.6"/>
<text text-anchor="middle" x="159" y="-321.6" font-family="Helvetica,sans-Serif" font-size="10.00" fill="#000000">Is Double-</text>
<text text-anchor="middle" x="159" y="-309.6" font-family="Helvetica,sans-Serif" font-size="10.00" fill="#000000">Checking Needed?</text>
</g>
<!-- decision_parsing&#45;&gt;decision_double_check -->
<g id="edge9" class="edge">
<title>decision_parsing-&gt;decision_double_check</title>
<path fill="none" stroke="#000000" d="M376.2879,-418.9131C332.7804,-398.8275 258.9902,-364.7615 209.6342,-341.9758"/>
<polygon fill="#000000" stroke="#000000" points="210.9568,-338.7314 200.4105,-337.7176 208.0227,-345.0869 210.9568,-338.7314"/>
<text text-anchor="middle" x="311.8829" y="-372.8" font-family="Times,serif" font-size="14.00" fill="#000000">Yes</text>
</g>
<!-- parsing_action -->
<g id="node11" class="node">
<title>parsing_action</title>
<polygon fill="#add8e6" stroke="#000000" points="407.896,-336.6 278.104,-336.6 278.104,-300.6 407.896,-300.6 407.896,-336.6"/>
<text text-anchor="middle" x="343" y="-315.6" font-family="Helvetica,sans-Serif" font-size="10.00" fill="#000000">Update Action to 'parsing'</text>
</g>
<!-- decision_parsing&#45;&gt;parsing_action -->
<g id="edge8" class="edge">
<title>decision_parsing-&gt;parsing_action</title>
<path fill="none" stroke="#000000" d="M396.8577,-409.7677C385.6247,-390.7531 370.3438,-364.8863 358.9279,-345.562"/>
<polygon fill="#000000" stroke="#000000" points="361.9261,-343.7559 353.8263,-336.9262 355.8992,-347.3163 361.9261,-343.7559"/>
<text text-anchor="middle" x="390.5533" y="-372.8" font-family="Times,serif" font-size="14.00" fill="#000000">No</text>
</g>
<!-- decision_double_check&#45;&gt;completed_state -->
<g id="edge13" class="edge">
<title>decision_double_check-&gt;completed_state</title>
<path fill="none" stroke="#000000" d="M131.2008,-295.3898C114.8791,-279.8696 95.7631,-257.9234 86.8934,-233.8 77.0774,-207.1029 79.4054,-197.2411 86.8934,-169.8 91.614,-152.5007 101.4697,-135.1291 110.6696,-121.4869"/>
<polygon fill="#000000" stroke="#000000" points="113.6773,-123.294 116.5599,-113.0988 107.9487,-119.2711 113.6773,-123.294"/>
<text text-anchor="middle" x="95.5533" y="-197.6" font-family="Times,serif" font-size="14.00" fill="#000000">No</text>
</g>
<!-- decision_has_double_checked -->
<g id="node10" class="node">
<title>decision_has_double_checked</title>
<polygon fill="#add8e6" stroke="#000000" points="205,-233.8 113.3239,-201.8 205,-169.8 296.6761,-201.8 205,-233.8"/>
<text text-anchor="middle" x="205" y="-204.8" font-family="Helvetica,sans-Serif" font-size="10.00" fill="#000000">Has already</text>
<text text-anchor="middle" x="205" y="-192.8" font-family="Helvetica,sans-Serif" font-size="10.00" fill="#000000">double checked?</text>
</g>
<!-- decision_double_check&#45;&gt;decision_has_double_checked -->
<g id="edge12" class="edge">
<title>decision_double_check-&gt;decision_has_double_checked</title>
<path fill="none" stroke="#000000" d="M170.2529,-290.0275C176.2561,-274.7844 183.719,-255.8354 190.1879,-239.4099"/>
<polygon fill="#000000" stroke="#000000" points="193.4554,-240.6645 193.8633,-230.0775 186.9423,-238.0994 193.4554,-240.6645"/>
<text text-anchor="middle" x="195.8829" y="-256" font-family="Times,serif" font-size="14.00" fill="#000000">Yes</text>
</g>
<!-- decision_has_double_checked&#45;&gt;double_check_state -->
<g id="edge15" class="edge">
<title>decision_has_double_checked-&gt;double_check_state</title>
<path fill="none" stroke="#000000" d="M227.2538,-177.2979C241.3856,-161.7383 259.7718,-141.4946 274.7723,-124.9786"/>
<polygon fill="#000000" stroke="#000000" points="277.6983,-126.9628 281.8307,-117.2071 272.5165,-122.2565 277.6983,-126.9628"/>
<text text-anchor="middle" x="274.5533" y="-139.2" font-family="Times,serif" font-size="14.00" fill="#000000">No</text>
</g>
<!-- decision_has_double_checked&#45;&gt;completed_state -->
<g id="edge14" class="edge">
<title>decision_has_double_checked-&gt;completed_state</title>
<path fill="none" stroke="#000000" d="M187.0867,-175.9467C175.7541,-159.5911 161.1319,-138.4877 149.659,-121.9295"/>
<polygon fill="#000000" stroke="#000000" points="152.2223,-119.4835 143.6501,-113.2572 146.4685,-123.4703 152.2223,-119.4835"/>
<text text-anchor="middle" x="181.8829" y="-139.2" font-family="Times,serif" font-size="14.00" fill="#000000">Yes</text>
</g>
<!-- parsing_api_call -->
<g id="node14" class="node">
<title>parsing_api_call</title>
<polygon fill="#f08080" stroke="#000000" points="445.5797,-219.8 314.4203,-219.8 314.4203,-183.8 445.5797,-183.8 445.5797,-219.8"/>
<text text-anchor="middle" x="380" y="-198.8" font-family="Helvetica,sans-Serif" font-size="10.00" fill="#000000">API Call: Parse Response</text>
</g>
<!-- parsing_action&#45;&gt;parsing_api_call -->
<g id="edge10" class="edge">
<title>parsing_action-&gt;parsing_api_call</title>
<path fill="none" stroke="#000000" d="M348.7813,-300.35C354.782,-281.4072 364.243,-251.5412 371.1782,-229.6484"/>
<polygon fill="#000000" stroke="#000000" points="374.576,-230.512 374.2593,-219.9218 367.9028,-228.398 374.576,-230.512"/>
</g>
<!-- subtask_api_call&#45;&gt;main_state -->
<g id="edge5" class="edge">
<title>subtask_api_call-&gt;main_state</title>
<path fill="none" stroke="#000000" d="M327.1973,-585.1521C316.4746,-576.1777 303.2997,-565.1508 291.2712,-555.0835"/>
<polygon fill="#000000" stroke="#000000" points="293.4846,-552.3719 283.5697,-548.6377 288.9919,-557.7399 293.4846,-552.3719"/>
</g>
<!-- main_api_call&#45;&gt;decision_parsing -->
<g id="edge7" class="edge">
<title>main_api_call-&gt;decision_parsing</title>
<path fill="none" stroke="#000000" d="M412,-507.9848C412,-499.1689 412,-488.2201 412,-477.5218"/>
<polygon fill="#000000" stroke="#000000" points="415.5001,-477.4192 412,-467.4192 408.5001,-477.4192 415.5001,-477.4192"/>
</g>
<!-- parsing_api_call&#45;&gt;decision_parsing -->
<g id="edge11" class="edge">
<title>parsing_api_call-&gt;decision_parsing</title>
<path fill="none" stroke="#000000" d="M390.5344,-219.9264C399.5842,-236.6166 411.9473,-262.3852 417,-286.6 424.5567,-322.8148 422.1009,-365.0464 418.4662,-395.2472"/>
<polygon fill="#000000" stroke="#000000" points="414.965,-395.0303 417.1459,-405.3982 421.9065,-395.9332 414.965,-395.0303"/>
</g>
<!-- double_check_api_call&#45;&gt;decision_parsing -->
<g id="edge17" class="edge">
<title>double_check_api_call-&gt;decision_parsing</title>
<path fill="none" stroke="#000000" d="M444.9302,-36.2168C458.4961,-50.6717 474,-72.1828 474,-95 474,-318.6 474,-318.6 474,-318.6 474,-350.3568 455.8977,-381.8967 439.2561,-404.182"/>
<polygon fill="#000000" stroke="#000000" points="436.3592,-402.2061 432.9904,-412.2511 441.888,-406.4993 436.3592,-402.2061"/>
</g>
</g>
</svg>